<svg width="229" height="227" viewBox="0 0 229 227" fill="none" xmlns="http://www.w3.org/2000/svg">
<path d="M145.423 0C145.823 0 146.061 0.446315 145.838 0.778499L113.918 48.3736C113.72 48.6689 113.285 48.6689 113.087 48.3736L81.1619 0.778529C80.939 0.446348 81.1771 0 81.5771 0H145.423Z" fill="rgb(44,52,49)"/>
<path d="M159.419 118.804C159.325 118.898 159.198 118.951 159.065 118.951H67.9352C67.8025 118.951 67.6752 118.898 67.5814 118.804L34.8522 86.0324C34.5375 85.7173 34.7607 85.179 35.206 85.179H191.794C192.239 85.179 192.462 85.7173 192.148 86.0324L159.419 118.804Z" fill="rgb(44,52,49)"/>
<path d="M159.419 157.287C159.325 157.381 159.198 157.433 159.065 157.433H67.9352C67.8025 157.433 67.6752 157.381 67.5814 157.287L34.8524 124.52C34.5377 124.205 34.7608 123.667 35.2061 123.667H191.794C192.239 123.667 192.462 124.205 192.148 124.52L159.419 157.287Z" fill="rgb(44,52,49)"/>
<path d="M0 195.768H6.66058L15.7548 219L24.4648 195.768H30.613L18.7008 226.104H12.3605L0 195.768Z" fill="rgb(44,52,49)"/>
<path d="M59.2407 213.048C59.2407 214.371 59.5182 215.587 60.0733 216.696C60.671 217.763 61.4395 218.68 62.3788 219.448C63.3182 220.216 64.4069 220.813 65.6451 221.24C66.8833 221.667 68.1642 221.88 69.4877 221.88C71.281 221.88 72.8394 221.475 74.1629 220.664C75.4865 219.811 76.7034 218.701 77.8134 217.336H83.5774C80.6314 225.037 74.4832 226.872 68.7192 226.872C66.3282 226.872 64.1507 226.467 62.1867 225.656C60.2654 224.845 58.6216 223.736 57.2553 222.328C55.9318 220.877 54.907 219.192 54.1812 217.272C53.4554 215.309 53.0925 213.197 53.0925 210.936C53.0925 208.675 53.4767 206.584 54.2453 204.664C55.0565 202.701 56.1452 201.016 57.5115 199.608C58.9205 198.157 60.5856 197.027 62.5069 196.216C64.4283 195.405 66.5204 195 68.7832 195C71.4731 195 73.736 195.469 75.5719 196.408C77.4505 197.347 78.9876 198.584 80.1831 200.12C81.3786 201.613 82.2325 203.32 82.7448 205.24C83.2999 207.117 83.5774 209.037 83.5774 211V213.048H59.2407ZM77.4292 208.44C77.3865 207.16 77.173 205.987 76.7887 204.92C76.4472 203.853 75.9135 202.936 75.1876 202.168C74.4618 201.357 73.5438 200.739 72.4337 200.312C71.3663 199.843 70.1068 199.608 68.6552 199.608C67.2462 199.608 65.944 199.885 64.7485 200.44C63.5957 200.952 62.6137 201.635 61.8025 202.488C60.9912 203.341 60.3508 204.301 59.8811 205.368C59.4542 206.392 59.2407 207.416 59.2407 208.44H77.4292Z" fill="rgb(44,52,49)"/>
<path d="M109.686 195.768H115.45V200.44H115.578C115.962 199.629 116.475 198.904 117.115 198.264C117.755 197.581 118.46 197.005 119.228 196.536C120.04 196.067 120.915 195.704 121.854 195.448C122.794 195.149 123.733 195 124.672 195C125.611 195 126.465 195.128 127.234 195.384L126.978 201.592C126.508 201.464 126.038 201.357 125.569 201.272C125.099 201.187 124.629 201.144 124.16 201.144C121.342 201.144 119.186 201.933 117.691 203.512C116.197 205.091 115.45 207.544 115.45 210.872V226.104H109.686V195.768Z" fill="rgb(44,52,49)"/>
<path d="M204.628 213.048C204.628 214.371 204.906 215.587 205.461 216.696C206.058 217.763 206.827 218.68 207.766 219.448C208.706 220.216 209.794 220.813 211.032 221.24C212.271 221.667 213.552 221.88 214.875 221.88C216.668 221.88 218.227 221.475 219.55 220.664C220.874 219.811 222.091 218.701 223.201 217.336L229 217.357C226.225 224.717 219.871 226.872 214.107 226.872C211.716 226.872 209.538 226.467 207.574 225.656C205.653 224.845 204.009 223.736 202.643 222.328C201.319 220.877 200.294 219.192 199.569 217.272C198.843 215.309 198.48 213.197 198.48 210.936C198.48 208.675 198.864 206.584 199.633 204.664C200.444 202.701 201.533 201.016 202.899 199.608C204.308 198.157 205.973 197.027 207.894 196.216C209.816 195.405 211.908 195 214.171 195C216.86 195 219.123 195.469 220.959 196.408C222.838 197.347 224.375 198.584 225.57 200.12C226.766 201.613 227.62 203.32 228.132 205.24C228.687 207.117 228.965 209.037 228.965 211V213.048H204.628ZM222.817 208.44C222.774 207.16 222.56 205.987 222.176 204.92C221.835 203.853 221.301 202.936 220.575 202.168C219.849 201.357 218.931 200.739 217.821 200.312C216.754 199.843 215.494 199.608 214.043 199.608C212.634 199.608 211.331 199.885 210.136 200.44C208.983 200.952 208.001 201.635 207.19 202.488C206.379 203.341 205.738 204.301 205.268 205.368C204.842 206.392 204.628 207.416 204.628 208.44H222.817Z" fill="rgb(44,52,49)"/>
<path d="M163.579 227C160.235 227 157.406 226.166 155.092 224.499C152.778 222.832 151.32 220.663 150.717 217.991H156.988C157.785 220.511 159.982 221.771 163.579 221.771C165.854 221.771 167.565 221.411 168.713 220.691C169.86 219.971 170.433 219.071 170.433 217.991C170.433 216.949 169.977 216.115 169.063 215.49C168.149 214.865 167.002 214.429 165.621 214.183C164.26 213.937 162.782 213.605 161.188 213.188C159.593 212.753 158.106 212.26 156.725 211.71C155.345 211.161 154.197 210.233 153.284 208.925C152.37 207.599 151.913 205.97 151.913 204.037C151.913 201.48 152.934 199.339 154.975 197.615C157.036 195.872 159.797 195 163.258 195C166.486 195 169.238 195.777 171.513 197.33C173.788 198.884 175.217 200.921 175.8 203.44H169.529C168.421 201.3 166.331 200.229 163.258 200.229C159.467 200.229 157.581 201.499 157.6 204.037C157.6 205.079 158.057 205.922 158.971 206.567C159.885 207.192 161.022 207.637 162.384 207.902C163.764 208.149 165.252 208.499 166.846 208.954C168.44 209.39 169.918 209.882 171.279 210.432C172.66 210.962 173.807 211.881 174.721 213.188C175.654 214.496 176.121 216.097 176.121 217.991C176.121 220.549 175.003 222.69 172.767 224.414C170.55 226.138 167.488 227 163.579 227Z" fill="rgb(44,52,49)"/>
</svg>