<?xml version="1.0" encoding="UTF-8"?>
<svg id="Layer_1" data-name="Layer 1" xmlns="http://www.w3.org/2000/svg" viewBox="0 0 800.67 797.25">
  <defs>
    <style>
      .cls-1 {
        fill: #132313;
        fill-rule: evenodd;
        stroke-width: 0px;
      }
    </style>
  </defs>
  <path class="cls-1" d="m529.22,1.33c-10.33,1.2-16.07,3.31-22.86,8.42-3.2,2.4-11.04,6.88-17.43,9.96-10.39,5-12.01,6.13-15.34,10.79-2.05,2.86-6.99,8.36-10.98,12.21q-7.26,7-12.33,23c-2.79,8.8-6.2,17.96-7.57,20.35-4.15,7.24-3.82,39.17.5,48.31,1.65,3.49,3,6.91,3,7.61,0,7.71,9.91,30.26,15.12,34.43,2.27,1.82,6.27,6.46,8.87,10.31,4.06,6,5.79,7.58,12.04,11,4.01,2.2,10.13,6.56,13.6,9.69,7.4,6.7,10.26,7.73,31.81,11.43,30.5,5.25,65.36.04,77.89-11.63,3.25-3.02,8.89-7.11,12.54-9.07,4.71-2.54,7.64-4.99,10.13-8.46,1.92-2.69,6.65-8.21,10.5-12.26,16.61-17.48,28.01-74.37,18.63-92.95-1.62-3.22-4.35-10.64-6.06-16.51-4.69-16.1-6.11-18.74-14.74-27.4-4.31-4.32-9.12-9.58-10.7-11.69-2.23-2.99-5.34-5.01-14-9.09-6.12-2.89-13.36-6.96-16.09-9.06-12.31-9.46-36.46-12.87-66.53-9.38M139.98,221.56c-3.14,1.32-8.99,4.43-13,6.92-4.01,2.48-10.75,6.15-14.98,8.15-8.2,3.87-9.81,5.54-14.38,14.94-1.56,3.22-4.48,7.72-6.49,10-6.84,7.8-10.24,17.94-11.96,35.65-1.39,14.41-6.32,38.91-10.01,49.74-5.09,14.95-7.52,27.55-9.99,51.74-1.37,13.39-6.21,36.43-9.92,47.23-4.89,14.24-6.87,24.28-9.58,48.75-1.99,17.91-5.75,36.39-10.08,49.5-4.52,13.67-6.9,25.65-9.35,47.05-2.34,20.34-5.67,36.75-10.53,51.79-12.99,40.23-12.96,87.9.07,103.48,1.28,1.53,4.01,6.03,6.08,10,8.2,15.75,24.94,29.31,41.32,33.44,31.97,8.06-5.18,7.28,345.76,7.28s311.03,1.17,344.71-9.26c13.42-4.16,33.83-20.76,37.18-30.24.58-1.65,2.51-6.6,4.28-11,14.03-34.92,14.81-46.23,4.89-70.83-2.63-6.51-5.21-15.74-7.31-26.12-3.49-17.28-4.81-21.19-9.31-27.79-4.29-6.28-6.89-14.17-10.2-30.9-3.06-15.46-5-21.06-10.05-28.93-4.08-6.36-6.52-13.99-9.55-29.82-3.01-15.77-4.5-20.07-10.25-29.6-2.32-3.84-5.33-10.5-6.69-14.8-3.59-11.37-4.63-12.96-15.68-23.87-10.62-10.49-12.99-12.12-21.17-14.53-2.82-.83-7.6-2.55-10.62-3.81-14.03-5.86-35.9-4.8-50.91,2.47-3.08,1.49-8.21,3.75-11.42,5.02-3.96,1.57-6.68,3.45-8.5,5.89-1.47,1.97-5.09,5.9-8.05,8.73-6.79,6.51-16.96,16.59-29.39,29.13-8.19,8.27-15.36,15.38-19.23,19.09-2.2,2.11-5.46,5.67-7.23,7.92-2.22,2.81-5.53,5.18-10.57,7.57-4.03,1.91-9.42,5.29-11.97,7.5-2.55,2.21-5.9,4.27-7.43,4.59-20.08,4.11-35.19,3.04-43.3-3.06-3.19-2.4-8.32-5.47-11.4-6.84-6.52-2.88-26.16-20.81-33.09-30.2-2.35-3.19-6.6-8.04-9.45-10.79-2.85-2.75-6.71-7.5-8.57-10.57-1.87-3.06-6.07-7.89-9.33-10.72s-7.32-7.62-9.02-10.64c-1.94-3.44-5.06-6.94-8.36-9.39-6.52-4.84-7.86-6.4-10.87-12.65-1.32-2.73-5.13-7.68-8.47-11-3.34-3.32-8.27-9.41-10.95-13.53-2.68-4.12-8.09-10.88-12.02-15s-9-10.26-11.26-13.63c-2.26-3.37-5.96-7.61-8.24-9.4-2.27-1.8-6.46-6.77-9.29-11.05-2.89-4.36-7.26-9.38-9.94-11.41-2.72-2.06-6.09-5.96-7.81-9.01-1.67-2.95-4.92-7.02-7.22-9.04-2.3-2.02-5.41-4.77-6.91-6.12-1.5-1.35-4.17-5.16-5.93-8.48-1.77-3.31-5.53-8.12-8.37-10.69-2.84-2.57-7.82-8.72-11.07-13.67-3.25-4.95-8.93-12.04-12.63-15.76-3.7-3.72-8.57-9.54-10.84-12.95-2.26-3.41-6.17-8-8.68-10.21-2.51-2.21-6.14-6.48-8.07-9.49-4.58-7.15-7.28-9.55-14.8-13.14-3.42-1.63-8.63-4.78-11.56-6.99-11.36-8.56-38.15-12.03-51.05-6.61"/>
</svg>