<?xml version="1.0" encoding="UTF-8"?>
<svg id="Layer_1" data-name="Layer 1" xmlns="http://www.w3.org/2000/svg" viewBox="0 0 229 32">
  <defs>
    <style>
      .cls-1 {
        fill: #2d3431;
        stroke-width: 0px;
      }
    </style>
  </defs>
  <path class="cls-1" d="m0,.77h6.66l9.09,23.23L24.46.77h6.15l-11.91,30.34h-6.34L0,.77Z"/>
  <path class="cls-1" d="m59.24,18.05c0,1.32.28,2.54.83,3.65.6,1.07,1.37,1.98,2.31,2.75.94.77,2.03,1.37,3.27,1.79,1.24.43,2.52.64,3.84.64,1.79,0,3.35-.4,4.68-1.22,1.32-.85,2.54-1.96,3.65-3.33h5.76c-2.95,7.7-9.09,9.54-14.86,9.54-2.39,0-4.57-.4-6.53-1.22-1.92-.81-3.57-1.92-4.93-3.33-1.32-1.45-2.35-3.14-3.07-5.06-.73-1.96-1.09-4.07-1.09-6.34s.38-4.35,1.15-6.27c.81-1.96,1.9-3.65,3.27-5.06,1.41-1.45,3.07-2.58,5-3.39,1.92-.81,4.01-1.22,6.28-1.22,2.69,0,4.95.47,6.79,1.41,1.88.94,3.42,2.18,4.61,3.71,1.2,1.49,2.05,3.2,2.56,5.12.56,1.88.83,3.8.83,5.76v2.05h-24.34Zm18.19-4.61c-.04-1.28-.26-2.45-.64-3.52-.34-1.07-.88-1.98-1.6-2.75-.73-.81-1.64-1.43-2.75-1.86-1.07-.47-2.33-.7-3.78-.7s-2.71.28-3.91.83c-1.15.51-2.13,1.19-2.95,2.05-.81.85-1.45,1.81-1.92,2.88-.43,1.02-.64,2.05-.64,3.07h18.19Z"/>
  <path class="cls-1" d="m109.69.77h5.76v4.67h.13c.38-.81.9-1.54,1.54-2.18.64-.68,1.35-1.26,2.11-1.73.81-.47,1.69-.83,2.63-1.09.94-.3,1.88-.45,2.82-.45s1.79.13,2.56.38l-.26,6.21c-.47-.13-.94-.24-1.41-.32-.47-.09-.94-.13-1.41-.13-2.82,0-4.97.79-6.47,2.37-1.49,1.58-2.24,4.03-2.24,7.36v15.23h-5.76V.77Z"/>
  <path class="cls-1" d="m204.63,18.05c0,1.32.28,2.54.83,3.65.6,1.07,1.37,1.98,2.31,2.75.94.77,2.03,1.37,3.27,1.79,1.24.43,2.52.64,3.84.64,1.79,0,3.35-.4,4.68-1.22,1.32-.85,2.54-1.96,3.65-3.33l5.8.02c-2.77,7.36-9.13,9.51-14.89,9.51-2.39,0-4.57-.4-6.53-1.22-1.92-.81-3.57-1.92-4.93-3.33-1.32-1.45-2.35-3.14-3.07-5.06-.73-1.96-1.09-4.07-1.09-6.34s.38-4.35,1.15-6.27c.81-1.96,1.9-3.65,3.27-5.06,1.41-1.45,3.07-2.58,4.99-3.39,1.92-.81,4.01-1.22,6.28-1.22,2.69,0,4.95.47,6.79,1.41,1.88.94,3.42,2.18,4.61,3.71,1.2,1.49,2.05,3.2,2.56,5.12.55,1.88.83,3.8.83,5.76v2.05h-24.34Zm18.19-4.61c-.04-1.28-.26-2.45-.64-3.52-.34-1.07-.88-1.98-1.6-2.75-.73-.81-1.64-1.43-2.75-1.86-1.07-.47-2.33-.7-3.78-.7s-2.71.28-3.91.83c-1.15.51-2.13,1.19-2.95,2.05-.81.85-1.45,1.81-1.92,2.88-.43,1.02-.64,2.05-.64,3.07h18.19Z"/>
  <path class="cls-1" d="m163.58,32c-3.34,0-6.17-.83-8.49-2.5-2.31-1.67-3.77-3.84-4.38-6.51h6.27c.8,2.52,2.99,3.78,6.59,3.78,2.28,0,3.99-.36,5.13-1.08,1.15-.72,1.72-1.62,1.72-2.7s-.46-1.88-1.37-2.5-2.06-1.06-3.44-1.31c-1.36-.25-2.84-.58-4.43-.99-1.6-.43-3.08-.93-4.46-1.48-1.38-.55-2.53-1.48-3.44-2.79-.91-1.33-1.37-2.96-1.37-4.89,0-2.56,1.02-4.7,3.06-6.42,2.06-1.74,4.82-2.62,8.28-2.62,3.23,0,5.98.78,8.26,2.33,2.27,1.55,3.7,3.59,4.29,6.11h-6.27c-1.11-2.14-3.2-3.21-6.27-3.21-3.79,0-5.68,1.27-5.66,3.81,0,1.04.46,1.88,1.37,2.53.91.62,2.05,1.07,3.41,1.33,1.38.25,2.87.6,4.46,1.05,1.59.44,3.07.93,4.43,1.48,1.38.53,2.53,1.45,3.44,2.76.93,1.31,1.4,2.91,1.4,4.8,0,2.56-1.12,4.7-3.35,6.42-2.22,1.72-5.28,2.59-9.19,2.59Z"/>
</svg>